<svg width="800" height="620" viewBox="0 0 800 620" fill="none" xmlns="http://www.w3.org/2000/svg">
  <rect width="800" height="620" rx="36" fill="#FBF8F3"/>
  <circle cx="170" cy="142" r="56" fill="#F3E6D5"/>
  <circle cx="688" cy="182" r="72" fill="#F6EBDD"/>
  <circle cx="624" cy="506" r="68" fill="#F0DFCB"/>
  <circle cx="124" cy="530" r="54" fill="#F1E3D2"/>

  <g stroke="#26130C" stroke-width="8" stroke-linecap="round" stroke-linejoin="round">
    <path
      d="M423 130C419 104 439 79 467 76C478 54 502 42 531 42C557 42 581 52 594 71C602 68 611 66 621 66C655 66 683 93 683 127C683 160 656 187 623 187H470C438 187 412 162 412 131C412 131 412 130 423 130Z"
      fill="#FFFDFC"
    />
    <circle cx="449" cy="215" r="18" fill="#FFFDFC"/>
    <circle cx="423" cy="251" r="24" fill="#FFFDFC"/>
    <circle cx="505" cy="122" r="7" fill="#26130C"/>
    <circle cx="534" cy="122" r="7" fill="#26130C"/>
    <circle cx="563" cy="122" r="7" fill="#26130C"/>
  </g>

  <g>
    <path
      d="M118 456C118 375 176 319 261 319C339 319 386 366 390 445L392 534H112L118 456Z"
      fill="#AA672E"
      stroke="#26130C"
      stroke-width="10"
      stroke-linecap="round"
      stroke-linejoin="round"
    />
    <path
      d="M168 431C179 395 218 375 288 377"
      stroke="#26130C"
      stroke-width="10"
      stroke-linecap="round"
    />
    <path
      d="M194 171C212 150 240 138 272 140C276 126 289 118 303 124C308 126 312 130 315 135C326 128 342 130 351 140C340 167 314 173 290 171C266 170 225 184 194 171Z"
      fill="#AA672E"
      stroke="#26130C"
      stroke-width="10"
      stroke-linecap="round"
      stroke-linejoin="round"
    />
    <circle cx="161" cy="246" r="39" fill="#AA672E" stroke="#26130C" stroke-width="10"/>
    <circle cx="161" cy="246" r="26" fill="#FFD59D"/>
    <circle cx="340" cy="245" r="39" fill="#AA672E" stroke="#26130C" stroke-width="10"/>
    <circle cx="340" cy="245" r="26" fill="#FFD59D"/>
    <ellipse cx="251" cy="253" rx="110" ry="103" fill="#AA672E" stroke="#26130C" stroke-width="10"/>
    <path
      d="M193 250C193 206 220 181 250 171C278 177 311 204 311 251V300C311 342 288 369 250 369C212 369 189 341 189 300L193 250Z"
      fill="#FFD59D"
    />
    <path
      d="M203 206C213 213 227 213 239 210"
      stroke="#AA672E"
      stroke-width="10"
      stroke-linecap="round"
    />
    <path
      d="M165 410C183 383 209 372 233 374C219 390 214 410 218 432C195 435 176 428 165 410Z"
      fill="#AA672E"
      stroke="#26130C"
      stroke-width="10"
      stroke-linecap="round"
      stroke-linejoin="round"
    />
    <path
      d="M202 392C219 395 230 408 233 426"
      stroke="#26130C"
      stroke-width="10"
      stroke-linecap="round"
    />
    <circle cx="208" cy="426" r="11" fill="#FFD59D" stroke="#26130C" stroke-width="8"/>
    <circle cx="225" cy="438" r="12" fill="#FFD59D" stroke="#26130C" stroke-width="8"/>
    <circle cx="236" cy="456" r="11" fill="#FFD59D" stroke="#26130C" stroke-width="8"/>
    <path
      d="M211 250L228 258"
      stroke="#26130C"
      stroke-width="10"
      stroke-linecap="round"
    />
    <path
      d="M289 251L271 258"
      stroke="#26130C"
      stroke-width="10"
      stroke-linecap="round"
    />
    <rect x="212" y="272" width="18" height="38" rx="9" fill="#26130C"/>
    <rect x="270" y="272" width="18" height="38" rx="9" fill="#26130C"/>
    <path d="M244 319H260" stroke="#26130C" stroke-width="8" stroke-linecap="round"/>
    <path d="M232 346C242 351 259 351 270 346" stroke="#26130C" stroke-width="8" stroke-linecap="round"/>
  </g>

  <g transform="rotate(8 294 468)">
    <rect x="143" y="434" width="326" height="118" rx="10" fill="#AA672E" stroke="#26130C" stroke-width="8"/>
    <rect x="143" y="392" width="326" height="118" rx="8" fill="url(#checker)" stroke="#26130C" stroke-width="8"/>

    <g stroke="#26130C" stroke-linecap="round" stroke-linejoin="round">
      <path d="M181 404H201L205 418H177L181 404Z" fill="#FFFDFC" stroke-width="7"/>
      <rect x="183" y="419" width="16" height="26" rx="5" fill="#FFFDFC" stroke-width="7"/>
      <path d="M176 448H206" stroke-width="7"/>
      <path d="M230 438C230 425 239 415 251 415C263 415 272 425 272 438C272 451 263 460 251 460C239 460 230 451 230 438Z" fill="#FFFDFC" stroke-width="7"/>
      <path d="M324 399C338 399 350 411 350 425C350 438 339 450 324 455L307 470C302 474 296 470 297 463L299 447C289 442 282 432 282 420C282 408 294 399 307 399H324Z" fill="#FFFDFC" stroke-width="7"/>
      <path d="M383 416H401L406 430H378L383 416Z" fill="#26130C" stroke-width="7"/>
      <rect x="384" y="431" width="18" height="42" rx="5" fill="#26130C" stroke-width="7"/>
      <path d="M374 476H412" stroke-width="7"/>
      <path d="M420 448C420 432 431 419 445 419C459 419 470 432 470 448C470 464 459 477 445 477C431 477 420 464 420 448Z" fill="#26130C" stroke-width="7"/>
    </g>
  </g>

  <g>
    <path
      d="M564 564C567 485 610 432 679 419C744 407 786 446 790 515V592H560L564 564Z"
      fill="#AA672E"
      stroke="#26130C"
      stroke-width="10"
      stroke-linecap="round"
      stroke-linejoin="round"
    />
    <ellipse cx="666" cy="388" rx="116" ry="90" fill="#AA672E" stroke="#26130C" stroke-width="10"/>
    <circle cx="713" cy="380" r="40" fill="#FFD59D" stroke="#26130C" stroke-width="10"/>
    <ellipse cx="632" cy="398" rx="60" ry="55" fill="#FFD59D"/>
    <ellipse cx="589" cy="394" rx="9" ry="16" fill="#26130C"/>
    <path d="M608 432C621 442 639 442 652 432" stroke="#26130C" stroke-width="8" stroke-linecap="round"/>
    <path d="M572 540C593 510 624 496 652 498" stroke="#26130C" stroke-width="10" stroke-linecap="round"/>
    <path d="M747 459C764 469 778 486 786 509" stroke="#26130C" stroke-width="10" stroke-linecap="round"/>
    <path d="M695 357C707 348 721 347 733 354" stroke="#26130C" stroke-width="10" stroke-linecap="round"/>
  </g>

  <defs>
    <pattern id="checker" x="0" y="0" width="80" height="80" patternUnits="userSpaceOnUse">
      <rect width="80" height="80" fill="#FFFDFC"/>
      <rect width="40" height="40" fill="#26130C"/>
      <rect x="40" y="40" width="40" height="40" fill="#26130C"/>
    </pattern>
  </defs>
</svg>
