<svg xmlns="http://www.w3.org/2000/svg" viewBox="0 0 1024 1024" width="1024" height="1024" fill="none">
  <defs>
    <style>
      .ol{stroke:#2a1208;stroke-width:8;stroke-linecap:round;stroke-linejoin:round}
      .br{fill:#b66a2a}
      .lt{fill:#f6dba4}
      .dk{fill:#2a1208}
      .wt{fill:#fffdf8}
    </style>
  </defs>

  <!-- left monkey -->
  <g>
    <path class="br ol" d="M104 563c0-117 86-223 215-223 105 0 171 71 171 162 0 59-24 92-24 112 0 31 12 31 12 61 0 42-61 71-140 71-165 0-234-84-234-183z"/>
    <ellipse class="lt ol" cx="150" cy="511" rx="53" ry="66"/>
    <ellipse class="lt ol" cx="486" cy="514" rx="49" ry="63"/>
    <path class="lt ol" d="M223 409c35-45 79-62 137-62 53 0 93 17 126 55 16 18 19 40 19 74 0 78-54 126-161 126-112 0-161-47-161-126 0-28 11-48 40-67z"/>
    <path class="ol" d="M309 354c10 5 13 12 19 12 8 0 20-12 35-18"/>
    <path class="ol" d="M360 608c-51 0-88 4-126 10 18-46 48-72 74-145"/>
    <path class="br ol" d="M142 664c-39-32-62-77-57-136 4-44 22-79 43-107 13-17 31-20 48-8 18 12 22 30 11 47-43 66-50 115-20 167 15 26 3 44-25 37z"/>
    <path class="br ol" d="M243 493c27 3 38 17 34 41-3 22-17 37-40 40-24 4-41-8-44-28-4-26 16-56 50-53z"/>
    <path class="lt ol" d="M251 507c-8 2-16 8-21 17m18 10c-11 3-19 10-22 20m24 2c-9 4-16 11-18 20"/>
    <path class="ol" d="M138 503c10-5 17-17 34-15"/>
    <path class="ol" d="M456 502c-8-3-11-9-23-10"/>
    <path class="dk" d="M258 495c12-25 33-29 53-13 3 36-8 54-33 54-17 0-26-13-20-41z"/>
    <path class="dk" d="M398 490c13-24 35-27 53-10-1 36-13 55-36 54-16-1-24-14-17-44z"/>
    <path class="ol" d="M332 578c18-4 35-4 50 0"/>
    <path class="ol" d="M325 345c-1 7 4 9 11 9 8 0 18-10 27-16"/>
  </g>

  <!-- thought bubble -->
  <g>
    <path class="wt ol" d="M504 143c17-33 54-46 92-31 27-26 76-24 99 7 49-5 91 30 90 74 0 28-13 51-36 64-8 5-10 14-8 27-26-12-45-11-58-2-10 7-20 8-32 3-19-9-31-8-49 3-13 8-22 8-34 0-13-9-29-10-46-4 2-15-2-24-13-30-28-17-38-45-29-77 10-33 41-47 82-34z"/>
    <ellipse class="wt ol" cx="494" cy="264" rx="21" ry="17"/>
    <circle class="dk" cx="528" cy="177" r="10"/>
    <circle class="dk" cx="567" cy="177" r="10"/>
    <circle class="dk" cx="604" cy="177" r="10"/>
  </g>

  <!-- chess board -->
  <g transform="translate(96 612)">
    <polygon class="br ol" points="0,48 230,0 598,58 370,106"/>
    <polygon class="br ol" points="0,48 0,76 370,136 370,106"/>
    <polygon class="br ol" points="370,106 598,58 598,86 370,136"/>

    <!-- full 8x8 top face -->
    <g>
      <polygon class="wt ol" points="18,48 46.8,42 92.8,49.25 64,55.25"/>
      <polygon class="dk ol" points="46.8,42 75.5,36 121.5,43.25 92.8,49.25"/>
      <polygon class="wt ol" points="75.5,36 104.2,30 150.2,37.25 121.5,43.25"/>
      <polygon class="dk ol" points="104.2,30 133,24 179,31.25 150.2,37.25"/>
      <polygon class="wt ol" points="133,24 161.8,18 207.8,25.25 179,31.25"/>
      <polygon class="dk ol" points="161.8,18 190.5,12 236.5,19.25 207.8,25.25"/>
      <polygon class="wt ol" points="190.5,12 219.2,6 265.2,13.25 236.5,19.25"/>
      <polygon class="dk ol" points="219.2,6 248,0 294,7.25 265.2,13.25"/>
      <polygon class="dk ol" points="64,55.25 92.8,49.25 138.8,56.5 110,62.5"/>
      <polygon class="wt ol" points="92.8,49.25 121.5,43.25 167.5,50.5 138.8,56.5"/>
      <polygon class="dk ol" points="121.5,43.25 150.2,37.25 196.2,44.5 167.5,50.5"/>
      <polygon class="wt ol" points="150.2,37.25 179,31.25 225,38.5 196.2,44.5"/>
      <polygon class="dk ol" points="179,31.25 207.8,25.25 253.8,32.5 225,38.5"/>
      <polygon class="wt ol" points="207.8,25.25 236.5,19.25 282.5,26.5 253.8,32.5"/>
      <polygon class="dk ol" points="236.5,19.25 265.2,13.25 311.2,20.5 282.5,26.5"/>
      <polygon class="wt ol" points="265.2,13.25 294,7.25 340,14.5 311.2,20.5"/>
      <polygon class="wt ol" points="110,62.5 138.8,56.5 184.8,63.75 156,69.75"/>
      <polygon class="dk ol" points="138.8,56.5 167.5,50.5 213.5,57.75 184.8,63.75"/>
      <polygon class="wt ol" points="167.5,50.5 196.2,44.5 242.2,51.75 213.5,57.75"/>
      <polygon class="dk ol" points="196.2,44.5 225,38.5 271,45.75 242.2,51.75"/>
      <polygon class="wt ol" points="225,38.5 253.8,32.5 299.8,39.75 271,45.75"/>
      <polygon class="dk ol" points="253.8,32.5 282.5,26.5 328.5,33.75 299.8,39.75"/>
      <polygon class="wt ol" points="282.5,26.5 311.2,20.5 357.2,27.75 328.5,33.75"/>
      <polygon class="dk ol" points="311.2,20.5 340,14.5 386,21.75 357.2,27.75"/>
      <polygon class="dk ol" points="156,69.75 184.8,63.75 230.8,71 202,77"/>
      <polygon class="wt ol" points="184.8,63.75 213.5,57.75 259.5,65 230.8,71"/>
      <polygon class="dk ol" points="213.5,57.75 242.2,51.75 288.2,59 259.5,65"/>
      <polygon class="wt ol" points="242.2,51.75 271,45.75 317,53 288.2,59"/>
      <polygon class="dk ol" points="271,45.75 299.8,39.75 345.8,47 317,53"/>
      <polygon class="wt ol" points="299.8,39.75 328.5,33.75 374.5,41 345.8,47"/>
      <polygon class="dk ol" points="328.5,33.75 357.2,27.75 403.2,35 374.5,41"/>
      <polygon class="wt ol" points="357.2,27.75 386,21.75 432,29 403.2,35"/>
      <polygon class="wt ol" points="202,77 230.8,71 276.8,78.25 248,84.25"/>
      <polygon class="dk ol" points="230.8,71 259.5,65 305.5,72.25 276.8,78.25"/>
      <polygon class="wt ol" points="259.5,65 288.2,59 334.2,66.25 305.5,72.25"/>
      <polygon class="dk ol" points="288.2,59 317,53 363,60.25 334.2,66.25"/>
      <polygon class="wt ol" points="317,53 345.8,47 391.8,54.25 363,60.25"/>
      <polygon class="dk ol" points="345.8,47 374.5,41 420.5,48.25 391.8,54.25"/>
      <polygon class="wt ol" points="374.5,41 403.2,35 449.2,42.25 420.5,48.25"/>
      <polygon class="dk ol" points="403.2,35 432,29 478,36.25 449.2,42.25"/>
      <polygon class="dk ol" points="248,84.25 276.8,78.25 322.8,85.5 294,91.5"/>
      <polygon class="wt ol" points="276.8,78.25 305.5,72.25 351.5,79.5 322.8,85.5"/>
      <polygon class="dk ol" points="305.5,72.25 334.2,66.25 380.2,73.5 351.5,79.5"/>
      <polygon class="wt ol" points="334.2,66.25 363,60.25 409,67.5 380.2,73.5"/>
      <polygon class="dk ol" points="363,60.25 391.8,54.25 437.8,61.5 409,67.5"/>
      <polygon class="wt ol" points="391.8,54.25 420.5,48.25 466.5,55.5 437.8,61.5"/>
      <polygon class="dk ol" points="420.5,48.25 449.2,42.25 495.2,49.5 466.5,55.5"/>
      <polygon class="wt ol" points="449.2,42.25 478,36.25 524,43.5 495.2,49.5"/>
      <polygon class="wt ol" points="294,91.5 322.8,85.5 368.8,92.75 340,98.75"/>
      <polygon class="dk ol" points="322.8,85.5 351.5,79.5 397.5,86.75 368.8,92.75"/>
      <polygon class="wt ol" points="351.5,79.5 380.2,73.5 426.2,80.75 397.5,86.75"/>
      <polygon class="dk ol" points="380.2,73.5 409,67.5 455,74.75 426.2,80.75"/>
      <polygon class="wt ol" points="409,67.5 437.8,61.5 483.8,68.75 455,74.75"/>
      <polygon class="dk ol" points="437.8,61.5 466.5,55.5 512.5,62.75 483.8,68.75"/>
      <polygon class="wt ol" points="466.5,55.5 495.2,49.5 541.2,56.75 512.5,62.75"/>
      <polygon class="dk ol" points="495.2,49.5 524,43.5 570,50.75 541.2,56.75"/>
      <polygon class="dk ol" points="340,98.75 368.8,92.75 414.8,100 386,106"/>
      <polygon class="wt ol" points="368.8,92.75 397.5,86.75 443.5,94 414.8,100"/>
      <polygon class="dk ol" points="397.5,86.75 426.2,80.75 472.2,88 443.5,94"/>
      <polygon class="wt ol" points="426.2,80.75 455,74.75 501,82 472.2,88"/>
      <polygon class="dk ol" points="455,74.75 483.8,68.75 529.8,76 501,82"/>
      <polygon class="wt ol" points="483.8,68.75 512.5,62.75 558.5,70 529.8,76"/>
      <polygon class="dk ol" points="512.5,62.75 541.2,56.75 587.2,64 558.5,70"/>
      <polygon class="wt ol" points="541.2,56.75 570,50.75 616,58 587.2,64"/>
    </g>

    <!-- pieces -->
    <g>
      <path class="wt ol" d="M133 66c0-18 15-29 31-29s30 11 30 29c0 9-4 13-9 17l5 7c4 6 7 13 7 21v6h-63v-6c0-8 3-15 7-21l5-7c-9-6-13-11-13-17z"/>
      <circle class="wt ol" cx="164" cy="34" r="11"/>
      <path class="wt ol" d="M206 101c0-12 11-20 24-20s24 8 24 20c0 5-2 8-6 11l4 5c3 4 5 9 5 15v4h-54v-4c0-6 2-11 5-15l4-5c-4-3-6-6-6-11z"/>
      <circle class="wt ol" cx="230" cy="76" r="8"/>
      <path class="dk ol" d="M260 84c0-14 12-22 26-22s26 8 26 22c0 6-3 9-7 12l5 6c4 5 6 11 6 18v5h-60v-5c0-7 2-13 6-18l5-6c-5-3-7-6-7-12z"/>
      <circle class="dk ol" cx="286" cy="57" r="9"/>
      <path class="wt ol" d="M358 54c8-15 22-24 40-24 11 0 21 4 28 12-8 11-18 18-28 24 10 3 20 11 29 24-8 15-22 25-41 25-16 0-29-5-39-15l5-15-8-15 14-16z"/>
      <path class="dk ol" d="M446 92c0-15 12-23 27-23 14 0 27 8 27 23 0 6-3 9-8 12l5 6c4 5 7 11 7 19v5h-63v-5c0-8 3-14 7-19l5-6c-5-3-7-6-7-12z"/>
      <circle class="dk ol" cx="473" cy="64" r="9"/>
      <path class="dk ol" d="M505 72l15-39h18l15 39h-10v19c0 11 5 19 16 32 9 12 14 23 14 35 0 15-13 22-39 22s-39-7-39-22c0-12 5-23 15-35 11-13 15-21 15-32V72h-10z"/>
      <rect class="dk ol" x="522" y="18" width="14" height="14" rx="2"/>
    </g>
  </g>

  <!-- right monkey -->
  <g>
    <path class="br ol" d="M696 815c0-97 89-190 195-190 104 0 169 61 169 149 0 43-17 77-49 108-18 18-26 39-27 67-19-8-31-11-42-9-15 3-25 0-36-11-9-10-19-17-32-22-18-7-32-7-45 1-18 10-32 6-40-12-27-58-49-81-93-81z"/>
    <path class="lt ol" d="M808 669c-35 30-59 64-73 104 17 40 44 67 87 79 87 23 165-20 198-106-18-34-44-58-80-72-43-17-89-19-132-5z"/>
    <path class="lt ol" d="M821 707c42-33 110-26 137 22 19 33 17 68-1 98-27 43-84 59-130 39 22-35 29-74 21-118-2-11-11-20-27-28z"/>
    <path class="ol" d="M982 673c20 19 31 43 30 73"/>
    <path class="ol" d="M850 698c-11 5-24 15-33 32"/>
    <path class="ol" d="M739 798c24 2 42-5 53-20"/>
    <path class="ol" d="M828 820c-10 26-16 55-20 86"/>
    <path class="ol" d="M952 821c14 9 27 24 39 44"/>
    <ellipse class="dk" cx="742" cy="725" rx="11" ry="19"/>
    <path class="ol" d="M839 739c22-25 74-24 92 8 14 23 14 46 0 68-18 28-57 35-91 16"/>
  </g>
</svg>
