<?xml version="1.0" encoding="UTF-8"?>
<svg id="Layer_2" data-name="Layer 2" xmlns="http://www.w3.org/2000/svg" viewBox="0 0 907.25 636.58">
  <defs>
    <style>
      .cls-1 {
        fill: #000;
      }

      .cls-1, .cls-2 {
        stroke-width: 0px;
      }

      .cls-2 {
        fill: #fff;
      }
    </style>
  </defs>
  <g id="Layer_1-2" data-name="Layer 1">
    <path class="cls-1" d="M722,469.3c12.22,7.94,24.02,16.65,36.77,23.63,16.18,8.86,33.1,16.37,49.75,24.35,11.17,5.35,21.92,11.35,30.93,19.96,3.47,3.32,6.53,7.08,9.64,10.76,9.82,11.63,7.72,38.75-11.33,44.88,7.61.71,15.02,1.41,22.44,2.11.07.7.14,1.41.21,2.11-2.21.66-4.37,1.66-6.63,1.94-9.25,1.14-18.52,2.75-27.8,2.94-33.15.66-66.3.8-99.46,1.13-.48,0-.95-.16-1.45-.76,28.27-2.68,56.54-5.35,85.85-8.12-4.29-2.66-8.15-4.26-10.97-6.95-10.46-9.98-20.7-20.22-30.79-30.58-5.62-5.77-11.88-8.69-20.09-7.29-10.01,1.71-17.09-2.81-20.75-12.18-.86-2.19-2.86-4.26-4.85-5.63-4.65-3.19-9.93-5.5-14.39-8.91-15.91-12.15-34.12-17.72-53.73-19.4-39.2-3.36-76.46,4.9-112.74,18.96-9.46,3.67-16.53,10.09-20.62,19.31-6.07,13.68-11.63,27.59-17.53,41.35-3.06,7.14,1.54,13.22,2.65,19.76.12.7,3.14,1.36,4.78,1.29,16.48-.69,32.94-1.98,49.42-2.21,14.63-.21,29.28.68,43.91,1.16,1.47.05,2.99.46,4.36,1,3.83,1.52,4.36,4.52.77,6.5-4.18,2.31-8.71,4.48-13.34,5.39-27.11,5.32-54.19,10.87-81.47,15.15-28.67,4.49-57.69,5.44-86.71,5.33-6.8-.03-13.64.65-20.38.07-7.37-.63-14.71-3.61-21.95-3.29-10.59.47-19.74-3.67-29.26-6.61-11.02-3.4-13.79-16.13-5.3-25.59,4.34-4.83,9.78-9.23,15.59-12.08,20.53-10.06,41.99-17.79,64.41-22.55,3.62-.77,5.56-2.53,7.16-5.84,7.26-14.96,14.09-30.21,22.54-44.49,6.39-10.8,14.85-20.4,22.65-30.33,4.91-6.25,11.81-9.36,19.38-11.56,22.46-6.54,45.31-10.84,68.6-12.93,1.46-.13,2.89-.49,4.59-.79-1.18-3.21-2.71-4.29-6.06-3.36-7.22,1.99-14.15,1.68-20.15-3.78-.87-.79-2.79-.79-4.15-.61-6.61.86-12.3-.82-16.52-6.08-1.79-2.24-3.47-2.69-5.96-1.48-1.17.57-2.65,1.14-3.85.92-13.65-2.5-28.22-1.18-40.46-9.59-.81-.55-1.68-1.22-2.6-1.36-14.28-2.12-22.47-10.57-25.64-24.92-2.63,3.2-4.92,6.18-7.4,8.98-9.07,10.24-18.61,12.44-30.89,7.43-7.13-2.91-11.68-8.22-12.31-15.66-.6-7.02.09-14.21.78-21.27.34-3.52-.17-5.47-3.74-6.73-8.16-2.88-16.14-6.23-24.3-9.12-1.42-.5-3.66-.17-4.93.67-25.1,16.56-52.72,24.43-82.68,23.77-38.61-.84-71.05-15.76-97.43-43.88-3.87-4.12-7.17-8.78-11.03-12.91-5.02-5.39-5.82-11.39-3.34-18.02,1.51-4.02,3.23-7.96,5.04-12.37-7.18-2.61-14.45-5.36-21.81-7.82-1.14-.38-2.84.35-4.09.94-13.51,6.45-26.97,13.01-40.48,19.47-1.76.84-3.7,1.32-5.93,1.4,7.23-8.83,18.17-13.06,25.75-21.94-3.25,1.17-6.55,2.23-9.75,3.53-28.52,11.59-56.94,23.43-85.58,34.72-9.56,3.77-19.63,6.29-29.53,9.18-2.23.65-4.71.44-7.08.62-.24-.49-.49-.97-.73-1.46,1.5-1.57,2.74-3.54,4.53-4.65,11.97-7.52,23.82-15.3,36.17-22.16,20.94-11.63,42.23-22.65,63.99-34.25-2.18,5.41-4.61,7.74-15.2,15.11-5.68,3.95-11.35,7.91-17.02,11.86.22.51.45,1.01.67,1.52,2.73-.59,5.52-1.01,8.19-1.8,33.49-9.89,65.07-24.48,96.53-39.38,58.78-27.82,115.54-59.28,170.27-94.4,5.19-3.33,10.26-6.83,15.41-10.2,1.31-.86,2.76-1.52,4.99-2.72-2.17,7.69-8.61,9.93-13.31,14.38,7.58-1.72,14.61-3.66,21.77-4.89,19.79-3.38,24.31-1.05,34.35,16.19,14.23,24.44,20.99,50.57,18.42,78.93-2.03,22.37-9.75,42.7-21.63,61.59-.61.97-1.18,1.97-2.02,3.37,5.18,2.24,10.15,4.38,14.99,6.47,3.86-5.07,7.11-10.12,11.13-14.47,8.95-9.67,20.59-10.85,31.64-3.62,4.76,3.12,7.44,7.72,7.89,13.29.4,4.95.08,9.95.08,15,5.81-2,11.27-4.21,16.91-5.67,3.13-.81,6.59-.58,9.89-.43,10.14.46,20.26,1.29,30.4,1.62,6.89.23,12.87-2.7,17.84-6-10.49-6.78-21.53-13.02-31.55-20.61-13.41-10.16-23.69-23.13-27.53-39.93-1.45-6.34-1.21-13.16-1.06-19.74.08-3.19-.1-5.27-2.8-7.58-18.91-16.22-23.68-50.09-10.27-70.96,7.41-11.54,18.4-16.18,31.77-13.35,2.42.51,4.79,1.23,7.54,1.95,18.82-27.97,46.09-41.77,79.99-46.2-3.96-3.71-7.49-6.65-10.55-10.02-1.53-1.68-3.39-4.5-2.91-6.17.49-1.69,3.54-3.3,5.72-3.74,11.79-2.38,22.82-.01,33.06,6.19,1.26.76,2.51,1.54,4.93,1.84-1.65-5.06-3.45-10.07-4.89-15.19-.63-2.23-.51-4.66-.74-7.01,2.65-.25,5.58-1.36,7.9-.6,19.74,6.42,32.38,20.34,39.87,39.23,1.22,3.07,2.77,4.77,5.79,6.04,31.69,13.26,54,35.4,64.09,68.79,1.53,5.05,2.39,10.31,3.49,15.15,4.65.25,8.97.15,13.19.77,17.05,2.52,29.1,15.34,30.82,32.48,3.33,33.2-20.39,61.82-53.61,64.01-5.99.39-12.12-1.65-18.2-2.41-1.45-.18-3.63-.34-4.38.48-10.5,11.51-23.51,19.51-37.05,26.67,15.58,16.76,22.11,37.97,30.19,58.3,4.78,12.03,8.61,24.45,13.06,37.26,14.29-4.36,27.14-10.52,37.34-21.37,8.95-9.52,14.14-21.27,19.43-32.97,7.75-17.12,16.86-33.2,32.2-45.01,25.91-19.95,63.63-16.66,84.17,8.18,12.19,14.74,15.06,31.89,8.35,49.77-6.58,17.52-19.53,28.3-38.34,31.09-3.68.55-7.67.13-11.36-.64-6.86-1.42-11.84-5.24-13.06-12.67-1.18-7.27,2.23-14.43,8.73-18.21,3.02-1.75,6.25-3.15,9.21-4.99,6.99-4.37,10.09-9.97,8.78-15.4-1.62-6.71-7.41-11.5-15.23-12.51-10.16-1.31-18.65,2.36-26.01,9.04-9.05,8.22-14.91,18.7-20.33,29.43-10.86,21.54-24.87,40.3-46.54,52.04-6.84,3.71-14.27,6.34-21.45,9.41-1.97.84-4.02,1.5-6.03,2.24-.21.64-.43,1.29-.64,1.93ZM522.9,252.47c-1.37.84-2.41,1.71-3.6,2.18-14.24,5.58-22.96,21.83-15.41,41.57,4.09,10.7,12.37,17.79,20.74,24.36,23.18,18.19,50.21,26.2,79.38,27.38,5.44.22,11.29.66,16.3-.97,10.6-3.46,20.49-8.52,29.08-16.08,13.44-11.83,14.83-31.86,2.45-44.88-1.32-1.39-3.44-2.01-5.19-2.99,3.24-3,5.06-4.11,6.87-5.25,15.53-9.7,24.61-23.63,26.9-41.77,3.36-26.62-13.6-49.58-39.6-53.52-12.49-1.89-24.05,2.1-35.39,6.75-5.85,2.4-11.6,5.13-17.59,7.08-7.33,2.39-13.21-.55-16.27-7.58-.92-2.12-1.44-4.42-2.08-6.66-2.97-10.3-10.68-15.29-21.25-13.5-9.39,1.59-17.21,5.95-23.23,13.46-15.55,19.38-17.14,45.62-3.99,66.76.68,1.09,1.19,2.29,1.89,3.66ZM484.76,576.51c-2.93,4.88-5.97,6.97-10.61,2.74-.44-.4-1.27-.35-1.9-.54-6.51-1.97-13.1-3.73-19.51-6-4.6-1.63-8.56-2.66-13.93-1.52-24.45,5.2-47.65,13.68-70.17,24.24-6.37,2.99-11.43,7.54-14.02,14.26-2.1,5.46.48,8.88,6.46,8.99,6.96-17.02,28.23-31.39,42-27.55-3.8,1.86-7.13,3.24-10.22,5.05-6.15,3.6-12.51,6.98-18.12,11.32-4.14,3.21-8.63,8.16-6.2,13.59,2.49,5.57,8.94,4.36,14.32,4.14,3.3-.14,4.81-1.15,5.82-4.56,3.86-13.01,23.8-24.81,38.24-22-3.66,1.76-6.46,2.93-9.09,4.4-5.78,3.23-11.84,6.13-17.08,10.1-3.67,2.79-8.13,7.11-5.96,12.09,2.05,4.71,8.15,4.89,12.51,3.85,8.97-2.14,17.72-5.29,26.43-8.39,1.67-.59,3.25-2.62,4.02-4.36,3.16-7.16,17.1-14.15,25.35-12.12-4.76,2.22-9.35,4.09-13.68,6.44-5.91,3.2-8.7,8.15-7.14,11.79,1.57,3.65,7.25,5.85,13.29,3.75,9.39-3.27,18.46-7.43,27.65-11.26,16.53-6.88,16.17-6.82,12.78-23.89-.9-4.52-2.97-6.28-6.57-7.29-3.67-1.03-5.45-3.04-4.66-7.27ZM580.3,453.3c3.95,0,7.57.68,10.84-.12,13.43-3.31,20.23-13.84,24.37-25.63,1.41-4,1.25-10.08-1.53-14.88-5.2-9.02-10.22-18.15-15.47-27.52,12.43-3.61,24.69-8.75,33.36-19.85-4.36,2.25-8.4,5.05-12.71,7.36-13.02,7-26.53,10.56-41.23,5.44-3.44-1.2-7.07-2.01-10.69-2.47-10.93-1.41-20.58,1.2-28.84,9.79,3.83,1.16,6.98,2.06,10.1,3.06,6.11,1.94,8.17,4.2,7.34,10.6-.7,5.34-1.91,11.03-4.56,15.61-4.13,7.12-9.64,13.44-14.62,20.06-3.75,4.98-2.12,9.73,4.2,10.23,4.13.33,8.46-.94,12.59-1.95,2.9-.71,5.61-2.17,8.41-3.3.56.76,1.12,1.51,1.68,2.27-2.98,1.68-5.96,3.36-8.94,5.03,10.28,7.29,18.59,2.08,27.62-.19-.69,2.36-1.08,3.69-1.89,6.45ZM236.03,264.31c-16.49,10.4-30.53,22.22-41.91,36.73-5.66,7.22-10.43,15.48-13.92,23.97-3.15,7.65.32,11.82,8.65,13.15,10.56,1.68,20.94.25,31.16-2.46,28.46-7.53,54.47-20.51,79.16-36.27,29.65-18.93,57.13-40.43,78.94-68.4,8.63-11.07,16.31-22.8,20.02-36.56,2.36-8.76-.27-12.2-9.48-12.34-18.64-.29-35.8,5.9-52,14.13-10.92,5.55-20.76,13.23-31.06,19.99-1.38.91-2.65,2-3.97,3,2.07.06,3.49-.74,4.97-1.4,15.21-6.74,30.25-13.88,45.72-19.96,6.19-2.44,13.26-3.05,20-3.53,5.06-.36,7.63,2.88,6.34,7.77-1.3,4.9-3.07,10.08-6.06,14.06-8.09,10.76-16.05,21.86-25.66,31.18-30.3,29.39-65.15,52.37-103.92,69.02-10.74,4.61-22.43,7.12-33.82,10.08-4.64,1.21-9.56.25-12.54-4.14-2.87-4.23-1.01-8.74,1.41-12.2,6.94-9.91,14.17-19.66,21.8-29.05,4.68-5.76,10.31-10.75,16.18-16.76ZM698.53,301.24c16.19,11.66,32.82,13.37,49.48,4.17,17.71-9.78,27.07-25.38,26.29-45.97-.56-14.87-9.35-25.34-22.9-27.53-18.09-2.92-31.37,5.67-42.57,18.82-2.99,3.52-3.76,7.42-2.71,11.61,3.5,14,2.46,27.12-7.59,38.89ZM773.38,550.4c4.13,4.6,7.39,8.59,11.03,12.21,6.35,6.32,12.68,12.72,19.55,18.45,2.9,2.42,7.04,3.8,10.83,4.6,4.78,1.01,6.58-1.45,4.09-5.6-2.26-3.77-5.52-6.99-8.57-10.23-1.7-1.8-3.89-3.14-6.67-5.33,7.88.99,15.87,6.93,21.32,15.08,3.89,5.82,12.45,6.9,17.79,2.25,3.79-3.3,3.63-6.85-.23-10.35-5.79-5.25-11.59-10.52-17.15-16.01-2.22-2.19-3.84-5.01-5.73-7.54l1.62-1.52c8.57,7.34,17.14,14.67,26.1,22.34,1.62-6.06.15-10.91-2.82-15.23-11.53-16.77-28.85-25.44-47.11-33.93-4.69,13.07-11.45,23.92-24.07,30.8ZM660.07,401.17c-10.07,6.59-19.9,13.03-30.67,20.07,8.04,2.69,14.88,5.17,21.85,7.24,5.1,1.52,7.74,4.93,7.44,9.88-.56,9.2-1.75,18.36-2.61,26.82-2.2.72-4.32.75-5.13,1.8-4.82,6.23-10.54,6.59-17.3,3.64-5.69-2.49-11.58-4.54-16.73-6.54,0,2.72.33,5.19-.15,7.48-.22,1.04-2.28,2.67-3.1,2.46-4.81-1.24-9.93-2.25-14.06-4.79-1.94-1.19-1.9-5.62-2.78-8.57-.09-.29-.4-.5-.67-.82-1.17.22-2.34.31-3.42.67-1.78.58-3.5,1.33-5.24,2.01.87,1.71,1.69,3.45,2.63,5.12.4.71,1.05,1.28,1.64,1.88,16.97,17.3,51.09,23.1,72.65,12.33,5.38-2.69,10.4-6.38,11.65-12.32,1.35-6.38,2.25-13.33,1.15-19.65-2.99-17.26-10.3-33.17-17.14-48.71ZM408.82,388.52c-2.86,8.16-3.69,16.19-.93,24.15,2.41,6.95,7.24,8.5,13.06,4.42,3.37-2.36,6.58-5.15,9.24-8.27,5.82-6.82,10.99-14.2,19.07-18.73,2.19-1.23,5.02-2.53,5.99-4.55,5.28-11,8.73-22.56,9.63-34.87.4-5.46-1.25-9.22-5.79-12.18-1.76-1.15-2.87-3.29-4.27-4.97.34-.31.69-.62,1.03-.93,1.37.23,2.75.46,5.17.87-14.84-8.58-28.33-2.46-32.12,14.64,2.82,0,5.64.7,7.92-.13,8.05-2.92,14.35,1.42,12.58,9.86-1.82,8.73-4.48,17.39-7.87,25.63-2.15,5.25-5.81,10.11-9.65,14.37-4.39,4.87-13.31,3.04-15.24-3.16-1.28-4.12-3.44-5.64-7.81-6.16ZM495.6,232.53c-3.91-5.91-3.72-10.86-1.5-16.1.6-1.42.98-3.84.21-4.76-2.01-2.42-4.71-4.27-7.15-6.36.97-1.22,2.15-2.72,3.54-4.47-2.32-.85-4.06-1.49-5.98-2.19,4.73-4.36,8.43-4.06,16.27.96,2.61-6.19,5.21-12.39,7.81-18.55-10.59-6.35-23.6-2.31-30.31,9.27-9.92,17.11-6.19,45.15,7.89,59.1,1.02,1.01,2.21,1.84,3.34,2.76q9.04-12.31,7.86-24.84c-.65,1.68-1.12,2.91-1.99,5.18ZM530.35,358.08c-10.4-.83-21.95-2.03-33.54-2.59-7.94-.39-15.24,1.87-20.62,6.84,1.76,2.91,3.71,5.01,4.41,7.47,3.69,12.94,21.41,25.57,34.82,24.52,7.95-.63,10.94-5.35,7.77-12.69-3.22-7.47-9.15-12.53-15.8-16.85-1.01-.66-1.97-1.41-3.76-2.71,9.58-4.3,19.19-1.9,26.73-3.98ZM459.45,406.66c-.74,14.11,13.3,24.06,25.39,18.51,8.03-3.69,13.96-9.62,17.24-17.9,2.47-6.23.57-9.83-5.84-11.72-3.94-1.16-7.26.06-10.03,2.83-2.12,2.11-3.97,4.49-6.03,6.66-6.11,6.45-7.6,6.74-15.65,3.43-1.52-.62-3.1-1.1-5.08-1.8ZM427.81,373.42c-.68-.47-1.17-.95-1.76-1.18-11.73-4.55-23.46-9.09-35.24-13.52-.87-.33-2.37-.1-3.07.48-3.26,2.67-6.35,5.55-9.82,8.64,11.89,4.64,23.29,9.18,34.75,13.56,10.4,3.97,10.43,3.89,14.95-6.52.13-.29.1-.65.2-1.46ZM486.44,431.62c6.3,4.24,12.56,4.99,18.97,1.66,7.7-4,13.02-10.24,15.49-18.59.73-2.46,1.37-5.6.45-7.73-.99-2.3-3.69-4.96-5.97-5.31-2.25-.34-6.7,1.59-7.11,3.26-2.98,12.4-10.6,20.74-21.83,26.72ZM514.6,188.84c9.76-13.86,21.73-25.42,35.97-34.49,14.19-9.03,29.59-15.22,46.08-18.75-34.81.17-69.32,20.94-82.05,53.23ZM416.18,261.74c8.65-9.26,7.08-20.29,1.1-38.6-2.57-7.86-5.03-16.2-12.69-21.41,2.52,10.03,7.08,19.41,9.16,29.31,2.09,9.97,1.72,20.45,2.43,30.71ZM513,435.97c2.63.96,4.21,1.94,5.86,2.07,5.64.44,9.56-2.71,12.25-7.16,3.33-5.52,6.98-11.15,4.43-18.16-.27-.75-.85-1.45-1.44-2-2.6-2.42-6.63-1.96-7.3,1.19-1.93,9.2-5.8,17.24-13.81,24.06ZM445.38,355.79c-.95-1.05-2.32-2.56-3.7-4.08-.87.99-2.35,1.89-2.52,3-2.11,13.56-7.05,25.87-15.54,36.72-.5.64-.85,2.18-.5,2.54.72.72,2.07,1.41,2.96,1.21,1.19-.26,2.36-1.21,3.23-2.15,9.39-10.17,13.42-22.7,16.06-37.24ZM195.21,290.84c-4.93-4.55-8.03-4.9-12.97-2.13-4.33,2.43-8.82,4.57-13.23,6.86-1.34.7-2.63,1.47-3.95,2.21.05.46.11.92.16,1.38,5.68,1.59,11.35,3.25,17.06,4.7.92.23,2.47-.08,3.03-.74,3.42-4.01,6.63-8.19,9.89-12.28ZM467.43,521.16c13.79-17.49,28.46-33.72,49.88-42.37-8.63,2.25-17.61,4.18-24.51,9.05-11.65,8.24-18.19,21.2-25.37,33.32ZM638.58,452.19c11.56,1.81,12.33,1.34,13.76-7.75,1.29-8.17-.16-9.84-9.44-11.1-1.42,6.21-2.84,12.39-4.32,18.85ZM627.29,100.29c-.25.5-.49,1-.74,1.5,1.66,7.21,3.32,14.42,4.98,21.63.25,0,.5-.02.75-.03v-16.13c4.39,2.07,7.83,3.69,11.27,5.31.26-.44.52-.89.79-1.33-5.68-3.65-11.36-7.31-17.05-10.96ZM612.03,119.34c-6.77-4.36-14.16-6.16-22.99-5.18,3.74,3.53,6.78,6.39,10.74,10.13-1.26-2.94-2-4.65-3.14-7.32,5.7.88,10.54,1.62,15.39,2.37ZM493.68,271.65c3.54-8.62,7.11-17.32,10.52-25.64-6.76,3.8-11.77,15.75-10.52,25.64ZM547.91,397.42c.11-.44.23-.88.34-1.32-5.99-2.5-11.98-4.99-17.97-7.49-.22.55-.45,1.1-.67,1.65,6.1,2.39,12.2,4.77,18.3,7.16Z"/>
    <path class="cls-1" d="M171.69,247.76c6.74,3.37,12.94,6.46,20.47,10.23-4.26,1.72-7.32,2.77-10.21,4.17-6.73,3.28-13.28,6.96-20.12,9.98-2.27,1-5.62,1.42-7.78.5-11.16-4.76-22.52-9.3-33.04-15.28-27.59-15.7-52.44-34.66-69.05-62.6-.59-.99-1.2-2.24-2.13-2.71-9.29-4.63-18.66-9.12-28.36-13.13,8.13,26.44,23.1,47.9,43.64,65.75,20.26,17.6,43.18,30.81,67.92,41.13-.09.71-.17,1.43-.26,2.14-3.29.21-7.12,1.63-9.78.43-28.97-13.03-55.32-30.01-76.93-53.61-14.95-16.33-25.74-35.15-32.04-56.42-.74-2.5-.38-5.33-.52-8,2.83.39,5.97.1,8.43,1.27,24.67,11.68,49.23,23.61,73.81,35.46,2.09,1.01,4.18,2,6.74,3.22-6.17-54.68,12.46-98.49,55.75-131.7-8.28-20.18-1.7-39.24,17.14-49.83,6.61-3.71,13.17-1.73,16.31,4.92,2.57,5.45.76,10.6-4.58,13.49-3.35,1.81-6.9,3.46-9.78,5.88-5.14,4.32-5.02,9.53-.65,14.19,10.25-3.08,20.08-6.8,30.25-8.95,40.14-8.49,76.32.82,108.39,25.99,7.29,5.72,13.36,12.97,20.22,19.26,7.4,6.78,7.76,14.96,5.45,23.82-3.23,12.36-10.65,22.48-17.67,32.8-.9,1.32-1.79,2.65-2.12,4.77,8.73-3.89,17.37-8.02,26.22-11.63,32.36-13.2,64.75-26.3,97.21-39.23,5.07-2.02,10.54-3.06,15.89-4.28,2.29-.52,4.74-.34,7.12-.48.25.5.51,1.01.76,1.51-1.83,1.69-3.43,3.76-5.52,5.02-10.96,6.63-21.95,13.22-33.1,19.51-17.2,9.7-34.54,19.15-52.85,28.52,1.2-2.11,1.96-4.7,3.68-6.24,5.5-4.94,11.35-9.5,16.71-14.72-77.78,28.9-149.04,71.55-225.62,104.84ZM282.47,185.64c.14.28.28.56.43.84,7.84-4.59,16.81-7.98,23.26-14.04,11.78-11.07,21.15-24.36,27.42-39.52,8.98-21.72-1.63-29.48-20.52-29.71-15.91-.2-30.97,4.39-45.4,10.6-45.29,19.49-83.78,48.32-115.49,86.02-10.19,12.12-19.14,25.23-24.89,40.16-1.5,3.89-2.04,8.14-3.43,13.91,9.4-1.3,17.16-2.37,24.92-3.44-6.44-5.01-7.67-7.71-5.42-14.87,1.24-3.94,2.61-8.09,5.01-11.35,6.89-9.37,13.59-19.06,21.73-27.27,11.22-11.32,23.16-22.1,35.74-31.88,27.27-21.2,56.83-38.39,90.67-47.01,5.09-1.29,10.51-2.04,15.74-1.84,7.73.29,11.28,5.35,9.83,12.92-.59,3.08-1.31,6.32-2.84,8.99-4.19,7.36-8.23,14.94-13.46,21.53-7.22,9.09-15.48,17.35-23.3,25.97ZM311.97,91.84c.18-.49.36-.97.55-1.46-28.65-26.71-82.79-36.06-115.36-22.16,2.92-.26,5.31.12,7.15-.73,8.11-3.75,16.35-1.45,24.55-1,2.66.15,5.29.66,7.94.84,19.75,1.38,38.12,7.18,55.56,16.49,6.2,3.31,13.05,5.37,19.61,8.01ZM117.76,165.86c5.37-25.34,19.51-46.73,30.77-69.39-21.86,16.98-30.92,45.02-30.77,69.39ZM159.43,64.48c.52.06,1.03.11,1.55.17,2.26-11.95,8.15-21.54,18.13-28.78.71.79,1.17,1.53,1.83,1.96,1.55,1.02,3.19,1.9,4.8,2.84.35-.7,1.19-1.68.98-2.04-1.04-1.78-2.07-3.81-3.68-4.91-.96-.66-3.25-.23-4.47.49-8.42,4.98-14.36,12.22-17.84,21.29-1.06,2.75-.88,5.98-1.27,8.98ZM107.22,187.79c.44.05.88.09,1.32.14.75-7.45,1.5-14.9,2.25-22.36-.37-.04-.74-.08-1.11-.12-.82,7.44-1.64,14.89-2.46,22.33Z"/>
    <path class="cls-1" d="M803.05,28.02c9.62-9.16,18.69-17.7,27.62-26.38,2.32-2.25,4.3-2.05,6.53-.16,3.02,2.57,6.05,5.14,9.63,8.18-9.4,9.65-18.8,19.3-28.32,29.07,2.19,2.45,3.82,4.07,5.2,5.88,5.37,7,7.57,14.6,4.88,23.42-.62,2.03-.19,4.9.81,6.84,19.74,38.62-2.94,81.76-46.13,87.51-32.54,4.33-63.8-13.99-74.09-43.42-12.39-35.43,7.06-70.44,43.71-78.67.81-.18,1.63-.45,2.45-.48,6.93-.28,11.93-2.5,16.51-8.81,5.72-7.88,15.28-7.73,24.32-5.23,2.55.71,5.03,1.65,6.88,2.27ZM729.5,70.36c-.04,6.5,3.8,10.46,10.1,10.41,8.05-.07,16.06-6.62,17.63-14.48.83-4.17-.23-7.69-4.13-9.8-9.44-5.12-23.53,3.2-23.6,13.87ZM734.08,54.87c-18.66,11.94-27.89,42.13-19.36,60.76.42-28.18,2.06-33.42,19.36-60.76ZM829.07,11.01c-.48-.42-.96-.84-1.44-1.25-9.33,10.64-18.65,21.29-27.98,31.93l1.1.97c9.44-10.55,18.87-21.1,28.31-31.65ZM773.31,48.06c1.95-2.12,3.95-3.28,3.96-4.46.01-5.74,2.84-9.62,8.09-12.69-8.8-.18-13.22,5.73-12.04,17.15ZM728.76,83.12c-2.13-.95-3.34-1.94-4.43-1.82-.81.08-1.46,1.6-2.19,2.48,1.05.78,2.03,2.02,3.16,2.17.76.1,1.73-1.34,3.45-2.82Z"/>
    <path class="cls-1" d="M138.21,334.11c-.97,1.88-1.34,2.95-1.98,3.81-12.28,16.39-24.5,32.82-36.93,49.09-6.17,8.07-13.51,14.77-23.82,17.22-10.22,2.43-17.02-4.28-14.12-14.38,3.75-13.05,12.31-22.91,23.08-30.52,7.82-5.52,16.41-10.14,25.11-14.19,8.96-4.17,18.47-7.17,28.66-11.04ZM95.49,359.1c-.26-.36-.52-.72-.78-1.09-7.45,6.71-15.14,13.18-22.21,20.27-2.56,2.56-3.85,6.52-5.25,10.02-.5,1.25-.09,3.67.83,4.43.91.75,3.56.7,4.46-.11,3.29-2.93,6.73-5.95,9.07-9.6,4.97-7.75,9.29-15.93,13.88-23.93Z"/>
    <path class="cls-1" d="M365.39,122.97c7.28-12.56,13.68-25.75,22.08-37.5,8.55-11.96,21.15-19.04,35.92-21.5,3.82-.64,8.01-.84,10.34,2.99,2.42,3.99.67,7.94-2.18,10.93-3.88,4.07-7.9,8.18-12.48,11.39-15.12,10.59-30.5,20.79-45.81,31.1-2.04,1.38-4.24,2.51-6.37,3.76-.5-.39-1-.78-1.5-1.17ZM389.6,91.12c1.94-1.13,3.82-2.37,5.82-3.38,7.69-3.91,15.49-7.62,23.08-11.72,1.57-.85,2.41-3.07,3.59-4.66-2.02-.28-4.22-1.23-6.02-.72-11.45,3.23-20.03,10.43-26.46,20.48Z"/>
    <path class="cls-1" d="M416.75,489.44c-14.86-2.78-29.79-5.25-44.56-8.42-30.18-6.46-59.77-14.89-87.56-28.65-12.75-6.31-24.61-14-34.4-24.53-1.11-1.2-2.18-2.43-2.78-4.31,2.2,1.54,4.39,3.1,6.6,4.62,20.62,14.21,43.65,23.36,66.87,32.18,29.63,11.25,60.18,19.37,90.93,26.82,1.71.41,3.4.93,5.1,1.41-.06.29-.13.58-.19.87Z"/>
    <path class="cls-1" d="M298.8,431.89c37.74,12.42,76.12,22.48,114.94,30.9-39.9-4.4-80.02-7.99-114.94-30.9Z"/>
    <path class="cls-1" d="M907.25,499.21c-37.38-13.37-75.94-21.83-115.26-27.03,40.79-1.3,79.71,5.51,115.26,27.03Z"/>
    <path class="cls-1" d="M897.36,519.27c-31.5-13.25-64.14-22.58-97.61-29.17,35.32.44,68.14,9.26,97.61,29.17Z"/>
    <path class="cls-1" d="M45.07,271.18c-6.19,1.65-11.59,3.73-17.16,4.39-6.66.8-13.49.7-20.21.36-3.37-.17-6.61-2.11-6.68-6.16-.08-4.41,3.35-5.72,6.95-6.45,11.67-2.38,22.7.69,33.69,4.02.6.18,1.16.64,1.64,1.07.35.32.54.81,1.77,2.76ZM6.28,268.06c4.61,4.22,11.52,3.86,15.96-.86-5.52-1.59-10.54-2.98-15.96.86Z"/>
    <path class="cls-1" d="M357.42,38.42c-.36,1.12-.49,3.4-1.67,4.8-5.19,6.17-10.58,12.2-16.18,18-.92.96-3.23.58-4.9.82.12-1.56-.15-3.29.43-4.66,2.82-6.72,5.59-13.5,8.99-19.94,1.18-2.23,3.89-4.19,6.33-5.11,3.94-1.48,6.85,1.03,6.99,6.07ZM340.44,52.5c7.56-3.14,10.54-9.02,7.44-14.62-5.66,3.28-5.73,9.05-7.44,14.62Z"/>
    <path class="cls-1" d="M421.4,163.49c3.8-5.68,15.21-9.66,20.05-7.45,1.3.59,2.93,2.24,2.95,3.42.02,1.47-1.23,3.21-2.39,4.36-.83.82-2.46,1.26-3.69,1.18-5.4-.34-10.79-.93-16.92-1.5Z"/>
    <path class="cls-1" d="M346.38,89.78c1.56-7.54,3.26-13.57,8.27-17.81,1.39-1.18,4.19-.7,6.34-.98.23,2.12,1.36,4.74.52,6.28-3.09,5.65-8.39,8.95-15.13,12.52Z"/>
    <path class="cls-1" d="M622.93,579.48c22.25-3.17,44.39-5.47,66.68-2.47-22.23.82-44.46,1.64-66.68,2.47Z"/>
    <path class="cls-2" d="M522.9,252.47c-.7-1.36-1.21-2.56-1.89-3.66-13.15-21.14-11.56-47.38,3.99-66.76,6.03-7.51,13.85-11.87,23.23-13.46,10.57-1.79,18.28,3.2,21.25,13.5.64,2.24,1.16,4.54,2.08,6.66,3.06,7.04,8.94,9.97,16.27,7.58,6-1.95,11.74-4.68,17.59-7.08,11.34-4.66,22.9-8.64,35.39-6.75,26,3.93,42.96,26.9,39.6,53.52-2.29,18.14-11.37,32.07-26.9,41.77-1.81,1.13-3.64,2.24-6.87,5.25,1.75.98,3.87,1.61,5.19,2.99,12.38,13.02,11,33.06-2.45,44.88-8.59,7.56-18.49,12.62-29.08,16.08-5.01,1.64-10.86,1.2-16.3.97-29.17-1.19-56.2-9.2-79.38-27.38-8.37-6.57-16.65-13.66-20.74-24.36-7.55-19.74,1.17-35.99,15.41-41.57,1.19-.47,2.23-1.34,3.6-2.18ZM656.11,220.3c-6.12-8.22-8.39-8.94-17.36-5.35-10.49,4.2-20.82,8.81-31.47,12.54-5.6,1.96-12.14,6.29-16.92-2.69-.87,7.34.86,10.19,7.54,13.89-.38,4.57-1.18,9.03-1.01,13.45.25,6.46,4.22,12.11,8.37,13.07,4.33,1,9.42-2.37,12.78-8.58.78-1.45,1.66-3,1.86-4.58.86-6.81,1.49-13.65,2.38-22.11,10.18-2.9,21.91-6.25,33.84-9.65ZM553.1,224.85c10.11,7.25,10.87,7.28,14.37,1.57-3.01-2.37-6.32-4.24-8.65-6.95-7.27-8.44-14.22-17.16-21.2-25.84-4.16-5.18-7.13-5.22-11.6-.08,4.47,5.08,8.93,10.14,13.5,15.33-6.58,7.41-9.46,15.69-9.01,25.07.25,5.26.88,10.63,6.44,13.02,3.43,1.48,9.1-2.94,11.78-9.08,1.83-4.19,2.95-8.68,4.38-13.04ZM552.25,301.54c1.82,1.62,3.49,3.45,5.47,4.82,9.53,6.57,20.05,8.62,31.37,6.29,10.91-2.24,20.05-7.78,28.21-15.19,5.72-5.2,5.78-5.12,11.42-.12.16.14.58-.02,1.07-.05.69-4.96-1.83-8.26-5.69-10.7-2.99-1.89-6.18-2.99-9.86-.43.89,1.22,1.6,2.19,2.29,3.13-15.91,18.11-39.43,22.3-64.28,12.24ZM571.61,268.88c1.77-1.28,2.79-2.01,3.8-2.74-1.81-1.93-3.63-3.86-5.44-5.78-1.4,1.33-2.81,2.67-4.21,4,1.84,1.42,3.68,2.85,5.85,4.52ZM556.36,264.62c1.18-2.55,2.73-4.36,2.33-5.45-.51-1.39-2.5-2.74-4.06-3.04-.92-.18-2.23,1.71-3.37,2.67,1.44,1.65,2.88,3.29,5.1,5.82Z"/>
    <path class="cls-2" d="M484.76,576.51c-.79,4.23.99,6.23,4.66,7.27,3.6,1.01,5.67,2.77,6.57,7.29,3.39,17.07,3.75,17.01-12.78,23.89-9.19,3.82-18.26,7.99-27.65,11.26-6.04,2.1-11.73-.1-13.29-3.75-1.56-3.63,1.24-8.58,7.14-11.79,4.33-2.35,8.92-4.22,13.68-6.44-8.24-2.03-22.18,4.96-25.35,12.12-.77,1.74-2.35,3.77-4.02,4.36-8.71,3.1-17.46,6.25-26.43,8.39-4.36,1.04-10.47.86-12.51-3.85-2.16-4.98,2.29-9.31,5.96-12.09,5.23-3.97,11.3-6.87,17.08-10.1,2.63-1.47,5.43-2.64,9.09-4.4-14.44-2.81-34.38,9-38.24,22-1.01,3.4-2.51,4.42-5.82,4.56-5.38.22-11.82,1.43-14.32-4.14-2.43-5.42,2.06-10.38,6.2-13.59,5.6-4.34,11.97-7.72,18.12-11.32,3.08-1.81,6.42-3.19,10.22-5.05-13.77-3.84-35.04,10.53-42,27.55-5.98-.1-8.56-3.53-6.46-8.99,2.59-6.72,7.64-11.27,14.02-14.26,22.52-10.56,45.73-19.04,70.17-24.24,5.38-1.14,9.33-.11,13.93,1.52,6.41,2.27,13,4.03,19.51,6,.64.19,1.47.14,1.9.54,4.64,4.22,7.68,2.14,10.61-2.74Z"/>
    <path class="cls-2" d="M580.3,453.3c.81-2.76,1.2-4.09,1.89-6.45-9.03,2.27-17.33,7.48-27.62.19,2.98-1.68,5.96-3.36,8.94-5.03-.56-.76-1.12-1.51-1.68-2.27-2.8,1.13-5.51,2.59-8.41,3.3-4.13,1-8.46,2.27-12.59,1.95-6.32-.5-7.95-5.25-4.2-10.23,4.98-6.62,10.49-12.94,14.62-20.06,2.65-4.57,3.87-10.26,4.56-15.61.84-6.4-1.22-8.66-7.34-10.6-3.12-.99-6.27-1.9-10.1-3.06,8.26-8.59,17.91-11.19,28.84-9.79,3.61.47,7.25,1.27,10.69,2.47,14.7,5.12,28.21,1.56,41.23-5.44,4.31-2.31,8.35-5.11,12.71-7.36-8.67,11.09-20.93,16.24-33.36,19.85,5.26,9.38,10.27,18.5,15.47,27.52,2.77,4.81,2.93,10.88,1.53,14.88-4.14,11.79-10.94,22.32-24.37,25.63-3.26.8-6.89.12-10.84.12Z"/>
    <path class="cls-2" d="M236.03,264.31c-5.87,6.01-11.5,11-16.18,16.76-7.63,9.39-14.86,19.13-21.8,29.05-2.42,3.46-4.28,7.97-1.41,12.2,2.98,4.39,7.9,5.35,12.54,4.14,11.39-2.96,23.08-5.47,33.82-10.08,38.77-16.65,73.62-39.63,103.92-69.02,9.61-9.32,17.57-20.42,25.66-31.18,2.99-3.98,4.77-9.15,6.06-14.06,1.29-4.89-1.27-8.12-6.34-7.77-6.74.47-13.81,1.09-20,3.53-15.46,6.09-30.51,13.23-45.72,19.96-1.48.66-2.91,1.46-4.97,1.4,1.32-1,2.58-2.09,3.97-3,10.3-6.76,20.14-14.44,31.06-19.99,16.2-8.23,33.36-14.42,52-14.13,9.21.14,11.84,3.58,9.48,12.34-3.71,13.76-11.38,25.49-20.02,36.56-21.81,27.97-49.29,49.47-78.94,68.4-24.69,15.76-50.69,28.74-79.16,36.27-10.21,2.7-20.59,4.14-31.16,2.46-8.34-1.33-11.8-5.5-8.65-13.15,3.49-8.48,8.26-16.74,13.92-23.97,11.38-14.51,25.42-26.33,41.91-36.73Z"/>
    <path class="cls-2" d="M698.53,301.24c10.06-11.78,11.1-24.89,7.59-38.89-1.05-4.19-.28-8.1,2.71-11.61,11.2-13.15,24.49-21.73,42.57-18.82,13.54,2.18,22.34,12.66,22.9,27.53.77,20.58-8.58,36.18-26.29,45.97-16.66,9.2-33.28,7.49-49.48-4.17ZM714.43,276.12c4.07-2.35,7.1-4.29,10.3-5.88,3.61-1.79,6.17-.35,6.82,3.62.95,5.75-1.76,9.93-5.94,13.43-1.58,1.32-3.21,2.57-5.48,4.38,6.7,1.96,11.23-.22,14.99-4.3,7.18-7.78,6.84-15.99-.02-24.92,4.78-1.51,8.76-3.38,12.91-3.92,4.06-.53,8.29.29,12.51.53-2.54-4.61-6.23-6.84-11.66-7.14-12.85-.69-28.03,9.59-34.43,24.19Z"/>
    <path class="cls-2" d="M773.38,550.4c12.62-6.88,19.37-17.73,24.07-30.8,18.26,8.49,35.58,17.16,47.11,33.93,2.97,4.32,4.43,9.17,2.82,15.23-8.96-7.67-17.53-15.01-26.1-22.34l-1.62,1.52c1.89,2.53,3.5,5.34,5.73,7.54,5.56,5.49,11.36,10.76,17.15,16.01,3.86,3.5,4.02,7.05.23,10.35-5.34,4.65-13.9,3.57-17.79-2.25-5.46-8.16-13.44-14.09-21.32-15.08,2.78,2.19,4.97,3.53,6.67,5.33,3.06,3.24,6.31,6.46,8.57,10.23,2.49,4.15.69,6.6-4.09,5.6-3.8-.8-7.93-2.18-10.83-4.6-6.87-5.73-13.19-12.13-19.55-18.45-3.64-3.62-6.9-7.61-11.03-12.21Z"/>
    <path class="cls-2" d="M660.07,401.17c6.84,15.54,14.15,31.45,17.14,48.71,1.09,6.32.2,13.28-1.15,19.65-1.26,5.94-6.28,9.64-11.65,12.32-21.57,10.77-55.68,4.97-72.65-12.33-.58-.59-1.23-1.17-1.64-1.88-.95-1.67-1.76-3.41-2.63-5.12,1.75-.68,3.47-1.43,5.24-2.01,1.08-.35,2.25-.45,3.42-.67.27.32.59.53.67.82.89,2.95.84,7.37,2.78,8.57,4.13,2.54,9.24,3.55,14.06,4.79.82.21,2.88-1.42,3.1-2.46.48-2.3.15-4.76.15-7.48,5.16,2,11.04,4.05,16.73,6.54,6.75,2.95,12.47,2.6,17.3-3.64.81-1.05,2.94-1.08,5.13-1.8.86-8.46,2.05-17.62,2.61-26.82.3-4.95-2.34-8.36-7.44-9.88-6.96-2.08-13.81-4.55-21.85-7.24,10.77-7.05,20.6-13.48,30.67-20.07Z"/>
    <path class="cls-2" d="M408.82,388.52c4.37.53,6.53,2.04,7.81,6.16,1.93,6.2,10.85,8.03,15.24,3.16,3.84-4.26,7.5-9.12,9.65-14.37,3.38-8.24,6.05-16.91,7.87-25.63,1.76-8.44-4.53-12.78-12.58-9.86-2.27.82-5.1.13-7.92.13,3.79-17.1,17.28-23.22,32.12-14.64-2.42-.41-3.79-.64-5.17-.87-.34.31-.69.62-1.03.93,1.41,1.69,2.51,3.83,4.27,4.97,4.54,2.96,6.19,6.72,5.79,12.18-.9,12.31-4.35,23.86-9.63,34.87-.97,2.02-3.79,3.32-5.99,4.55-8.07,4.54-13.25,11.92-19.07,18.73-2.66,3.12-5.88,5.91-9.24,8.27-5.82,4.08-10.64,2.53-13.06-4.42-2.76-7.96-1.94-15.99.93-24.15Z"/>
    <path class="cls-2" d="M495.6,232.53c.87-2.27,1.34-3.49,1.99-5.18q1.18,12.53-7.86,24.84c-1.13-.92-2.32-1.75-3.34-2.76-14.09-13.95-17.82-41.99-7.89-59.1,6.71-11.57,19.71-15.62,30.31-9.27-2.59,6.16-5.2,12.36-7.81,18.55-7.84-5.02-11.54-5.31-16.27-.96,1.91.7,3.66,1.34,5.98,2.19-1.38,1.75-2.57,3.24-3.54,4.47,2.44,2.09,5.14,3.94,7.15,6.36.77.92.39,3.34-.21,4.76-2.23,5.24-2.41,10.2,1.5,16.1Z"/>
    <path class="cls-2" d="M530.35,358.08c-7.54,2.09-17.15-.32-26.73,3.98,1.8,1.3,2.75,2.05,3.76,2.71,6.66,4.32,12.58,9.38,15.8,16.85,3.17,7.34.18,12.06-7.77,12.69-13.41,1.06-31.13-11.58-34.82-24.52-.7-2.46-2.64-4.56-4.41-7.47,5.38-4.96,12.69-7.22,20.62-6.84,11.58.56,23.14,1.76,33.54,2.59Z"/>
    <path class="cls-2" d="M459.45,406.66c1.98.7,3.56,1.17,5.08,1.8,8.06,3.32,9.54,3.02,15.65-3.43,2.06-2.18,3.91-4.55,6.03-6.66,2.77-2.76,6.09-3.99,10.03-2.83,6.41,1.89,8.31,5.49,5.84,11.72-3.28,8.28-9.21,14.22-17.24,17.9-12.09,5.55-26.13-4.4-25.39-18.51Z"/>
    <path class="cls-2" d="M427.81,373.42c-.11.81-.08,1.17-.2,1.46-4.52,10.41-4.55,10.49-14.95,6.52-11.46-4.38-22.86-8.91-34.75-13.56,3.47-3.09,6.56-5.97,9.82-8.64.71-.58,2.21-.8,3.07-.48,11.78,4.43,23.51,8.98,35.24,13.52.59.23,1.08.71,1.76,1.18Z"/>
    <path class="cls-2" d="M486.44,431.62c11.22-5.98,18.85-14.31,21.83-26.72.4-1.67,4.85-3.6,7.11-3.26,2.28.35,4.98,3,5.97,5.31.92,2.13.28,5.27-.45,7.73-2.47,8.35-7.79,14.59-15.49,18.59-6.41,3.33-12.67,2.59-18.97-1.66Z"/>
    <path class="cls-2" d="M514.6,188.84c12.73-32.3,47.24-53.06,82.05-53.23-16.49,3.52-31.89,9.72-46.08,18.75-14.25,9.07-26.21,20.63-35.97,34.49Z"/>
    <path class="cls-2" d="M416.18,261.74c-.71-10.26-.34-20.74-2.43-30.71-2.08-9.9-6.64-19.28-9.16-29.31,7.66,5.21,10.13,13.56,12.69,21.41,5.98,18.31,7.55,29.34-1.1,38.6Z"/>
    <path class="cls-2" d="M513,435.97c8-6.81,11.87-14.85,13.81-24.06.66-3.16,4.7-3.62,7.3-1.19.59.55,1.17,1.25,1.44,2,2.54,7.01-1.1,12.64-4.43,18.16-2.69,4.46-6.61,7.61-12.25,7.16-1.65-.13-3.23-1.11-5.86-2.07Z"/>
    <path class="cls-2" d="M445.38,355.79c-2.64,14.54-6.67,27.06-16.06,37.24-.87.94-2.05,1.89-3.23,2.15-.89.2-2.25-.49-2.96-1.21-.35-.35,0-1.9.5-2.54,8.49-10.85,13.42-23.16,15.54-36.72.17-1.1,1.65-2,2.52-3,1.37,1.51,2.74,3.03,3.7,4.08Z"/>
    <path class="cls-2" d="M195.21,290.84c-3.26,4.1-6.47,8.28-9.89,12.28-.56.66-2.12.97-3.03.74-5.72-1.46-11.38-3.11-17.06-4.7-.05-.46-.11-.92-.16-1.38,1.32-.74,2.61-1.51,3.95-2.21,4.41-2.29,8.9-4.43,13.23-6.86,4.94-2.77,8.04-2.42,12.97,2.13Z"/>
    <path class="cls-2" d="M467.43,521.16c7.18-12.12,13.72-25.08,25.37-33.32,6.9-4.88,15.88-6.81,24.51-9.05-21.41,8.65-36.08,24.88-49.88,42.37Z"/>
    <path class="cls-2" d="M638.58,452.19c1.48-6.47,2.9-12.64,4.32-18.85,9.27,1.26,10.72,2.93,9.44,11.1-1.43,9.09-2.2,9.56-13.76,7.75Z"/>
    <path class="cls-2" d="M627.29,100.29c5.68,3.65,11.36,7.31,17.05,10.96-.26.44-.52.89-.79,1.33-3.44-1.62-6.87-3.24-11.27-5.31v16.13c-.25,0-.5.02-.75.03-1.66-7.21-3.32-14.42-4.98-21.63.25-.5.49-1,.74-1.5Z"/>
    <path class="cls-2" d="M612.03,119.34c-4.84-.75-9.69-1.49-15.39-2.37,1.14,2.66,1.88,4.38,3.14,7.32-3.97-3.74-7-6.61-10.74-10.13,8.82-.98,16.21.82,22.99,5.18Z"/>
    <path class="cls-2" d="M493.68,271.65c-1.26-9.89,3.76-21.84,10.52-25.64-3.41,8.32-6.98,17.02-10.52,25.64Z"/>
    <path class="cls-2" d="M547.91,397.42c-6.1-2.39-12.2-4.77-18.3-7.16.22-.55.45-1.1.67-1.65,5.99,2.5,11.98,4.99,17.97,7.49-.11.44-.23.88-.34,1.32Z"/>
    <path class="cls-2" d="M282.47,185.64c7.82-8.62,16.08-16.88,23.3-25.97,5.23-6.59,9.27-14.18,13.46-21.53,1.52-2.67,2.25-5.91,2.84-8.99,1.45-7.57-2.1-12.62-9.83-12.92-5.22-.2-10.65.55-15.74,1.84-33.85,8.61-63.41,25.81-90.67,47.01-12.58,9.78-24.52,20.56-35.74,31.88-8.14,8.21-14.84,17.91-21.73,27.27-2.4,3.26-3.77,7.41-5.01,11.35-2.25,7.16-1.03,9.86,5.42,14.87-7.76,1.07-15.52,2.14-24.92,3.44,1.39-5.77,1.94-10.02,3.43-13.91,5.75-14.93,14.69-28.04,24.89-40.16,31.71-37.7,70.2-66.53,115.49-86.02,14.43-6.21,29.5-10.8,45.4-10.6,18.89.24,29.5,7.99,20.52,29.71-6.26,15.15-15.64,28.45-27.42,39.52-6.45,6.06-15.42,9.45-23.26,14.04-.14-.28-.28-.56-.43-.84Z"/>
    <path class="cls-2" d="M311.97,91.84c-6.56-2.63-13.41-4.7-19.61-8.01-17.44-9.31-35.82-15.11-55.56-16.49-2.66-.19-5.29-.7-7.94-.84-8.2-.45-16.44-2.75-24.55,1-1.83.85-4.23.47-7.15.73,32.57-13.9,86.71-4.55,115.36,22.16-.18.49-.36.97-.55,1.46Z"/>
    <path class="cls-2" d="M117.76,165.86c-.15-24.36,8.91-52.41,30.77-69.39-11.26,22.66-25.4,44.05-30.77,69.39Z"/>
    <path class="cls-2" d="M159.43,64.48c.39-3.01.22-6.23,1.27-8.98,3.48-9.07,9.42-16.31,17.84-21.29,1.23-.72,3.51-1.15,4.47-.49,1.61,1.11,2.65,3.13,3.68,4.91.21.37-.62,1.35-.98,2.04-1.6-.94-3.25-1.81-4.8-2.84-.66-.43-1.11-1.17-1.83-1.96-9.97,7.23-15.86,16.83-18.13,28.78-.52-.06-1.03-.11-1.55-.17Z"/>
    <path class="cls-2" d="M107.22,187.79c.82-7.44,1.64-14.89,2.46-22.33.37.04.74.08,1.11.12-.75,7.45-1.5,14.9-2.25,22.36-.44-.05-.88-.09-1.32-.14Z"/>
    <path class="cls-2" d="M729.5,70.36c.07-10.68,14.16-18.99,23.6-13.87,3.9,2.12,4.97,5.63,4.13,9.8-1.57,7.86-9.58,14.4-17.63,14.48-6.3.06-10.14-3.9-10.1-10.41Z"/>
    <path class="cls-2" d="M734.08,54.87c-17.3,27.34-18.94,32.58-19.36,60.76-8.53-18.63.7-48.82,19.36-60.76Z"/>
    <path class="cls-2" d="M829.07,11.01c-9.44,10.55-18.87,21.1-28.31,31.65l-1.1-.97c9.33-10.64,18.65-21.29,27.98-31.93.48.42.96.84,1.44,1.25Z"/>
    <path class="cls-2" d="M773.31,48.06c-1.18-11.42,3.24-17.32,12.04-17.15-5.25,3.07-8.08,6.95-8.09,12.69,0,1.17-2,2.34-3.96,4.46Z"/>
    <path class="cls-2" d="M728.76,83.12c-1.72,1.48-2.69,2.92-3.45,2.82-1.13-.15-2.12-1.39-3.16-2.17.72-.88,1.38-2.39,2.19-2.48,1.09-.11,2.29.87,4.43,1.82Z"/>
    <path class="cls-2" d="M95.49,359.1c-4.59,8-8.91,16.17-13.88,23.93-2.34,3.65-5.79,6.68-9.07,9.6-.9.8-3.55.85-4.46.11-.92-.75-1.32-3.18-.83-4.43,1.4-3.51,2.69-7.46,5.25-10.02,7.07-7.09,14.76-13.56,22.21-20.27.26.36.52.72.78,1.09Z"/>
    <path class="cls-2" d="M389.6,91.12c6.43-10.05,15.01-17.25,26.46-20.48,1.8-.51,4,.44,6.02.72-1.18,1.59-2.01,3.8-3.59,4.66-7.59,4.1-15.38,7.81-23.08,11.72-2,1.01-3.88,2.25-5.82,3.38Z"/>
    <path class="cls-2" d="M6.28,268.06c5.42-3.85,10.44-2.45,15.96-.86-4.45,4.73-11.35,5.08-15.96.86Z"/>
    <path class="cls-2" d="M340.44,52.5c1.7-5.56,1.78-11.34,7.44-14.62,3.1,5.59.12,11.47-7.44,14.62Z"/>
    <path class="cls-1" d="M656.11,220.3c-11.93,3.4-23.65,6.75-33.84,9.65-.88,8.45-1.51,15.29-2.38,22.11-.2,1.58-1.08,3.14-1.86,4.58-3.36,6.21-8.45,9.58-12.78,8.58-4.14-.96-8.11-6.61-8.37-13.07-.17-4.42.63-8.88,1.01-13.45-6.68-3.7-8.41-6.55-7.54-13.89,4.77,8.98,11.32,4.65,16.92,2.69,10.65-3.73,20.99-8.34,31.47-12.54,8.97-3.59,11.24-2.87,17.36,5.35ZM609.19,233.34c-1.54,2.11-2.88,3.44-3.47,5.05-.17.48,1.75,1.72,2.72,2.62,1.02-1.52,2.22-2.96,2.95-4.6.19-.44-1.05-1.52-2.2-3.06Z"/>
    <path class="cls-1" d="M553.11,224.85c-1.43,4.36-2.56,8.85-4.39,13.04-2.68,6.14-8.35,10.56-11.78,9.08-5.56-2.39-6.19-7.76-6.44-13.02-.45-9.38,2.43-17.66,9.01-25.07-4.57-5.19-9.02-10.25-13.5-15.33,4.47-5.14,7.43-5.1,11.6.08,6.98,8.68,13.93,17.4,21.2,25.84,2.34,2.71,5.65,4.59,8.65,6.95-3.5,5.71-4.26,5.68-14.36-1.57ZM541.57,213.12c-2.53,2.57-4.25,4.91-2.11,8.05.34.5,2.47.58,2.91.08,2.23-2.52,2.69-5.2-.8-8.13Z"/>
    <path class="cls-1" d="M552.25,301.54c24.85,10.06,48.37,5.87,64.28-12.24-.68-.94-1.4-1.91-2.29-3.13,3.68-2.56,6.87-1.46,9.86.43,3.87,2.44,6.38,5.74,5.69,10.7-.49.03-.91.19-1.07.05-5.64-5-5.7-5.08-11.42.12-8.16,7.41-17.3,12.96-28.21,15.19-11.32,2.32-21.84.28-31.37-6.29-1.99-1.37-3.66-3.2-5.47-4.82Z"/>
    <path class="cls-1" d="M571.61,268.88c-2.17-1.68-4.01-3.1-5.85-4.52,1.4-1.33,2.81-2.67,4.21-4,1.81,1.93,3.63,3.86,5.44,5.78-1.02.73-2.03,1.46-3.8,2.74Z"/>
    <path class="cls-1" d="M556.36,264.62c-2.21-2.53-3.66-4.18-5.1-5.82,1.14-.96,2.45-2.84,3.37-2.67,1.56.3,3.55,1.65,4.06,3.04.4,1.09-1.16,2.9-2.33,5.45Z"/>
    <path class="cls-1" d="M714.43,276.12c6.41-14.6,21.58-24.89,34.43-24.19,5.43.29,9.11,2.52,11.66,7.14-4.22-.23-8.45-1.05-12.51-.53-4.15.54-8.13,2.4-12.91,3.92,6.86,8.93,7.2,17.14.02,24.92-3.76,4.08-8.29,6.26-14.99,4.3,2.27-1.81,3.9-3.06,5.48-4.38,4.18-3.49,6.89-7.67,5.94-13.43-.65-3.97-3.21-5.41-6.82-3.62-3.2,1.59-6.23,3.53-10.3,5.88Z"/>
    <path class="cls-2" d="M609.19,233.34c1.15,1.54,2.39,2.62,2.2,3.06-.73,1.65-1.93,3.09-2.95,4.6-.96-.89-2.89-2.14-2.72-2.62.59-1.6,1.92-2.94,3.47-5.05Z"/>
    <path class="cls-2" d="M541.57,213.12c3.49,2.93,3.03,5.61.8,8.13-.44.49-2.57.42-2.91-.08-2.14-3.14-.43-5.48,2.11-8.05Z"/>
  </g>
</svg>