<?xml version="1.0" encoding="UTF-8"?>
<svg id="Layer_2" data-name="Layer 2" xmlns="http://www.w3.org/2000/svg" viewBox="0 0 397.35 397.35">
  <defs>
    <style>
      .cls-1 {
        fill: #111114;
      }

      .cls-1, .cls-2 {
        stroke-width: 0px;
      }

      .cls-2 {
        fill: #fff;
      }
    </style>
  </defs>
  <g id="Livello_1" data-name="Livello 1">
    <path class="cls-1" d="M397.35,198.68c0,109.73-88.95,198.68-198.68,198.68h0C88.95,397.35,0,308.4,0,198.68h0C0,88.95,88.95,0,198.68,0h0c109.73,0,198.68,88.95,198.68,198.68h0Z"/>
    <g>
      <path class="cls-2" d="M231.89,240.05c-.52-4.67-2.08-8.04-5.19-11.15-5.84-6.1-16.08-10.12-28.14-10.12s-22.31,3.89-28.14,10.12c-2.98,3.24-4.67,6.48-5.19,11.15-1.04,9.08-.39,16.86.65,29.44,1.04,11.93,2.98,27.89,5.45,43.97,1.82,11.54,3.24,17.77,4.54,22.18,2.2,7.26,10.12,13.49,22.7,13.49s20.62-6.36,22.7-13.49c1.3-4.41,2.72-10.64,4.54-22.18,2.46-16.21,4.41-32.04,5.45-43.97,1.17-12.58,1.69-20.36.65-29.44Z"/>
      <path class="cls-2" d="M230.46,173.9c0,17.64-14.27,31.91-31.91,31.91s-31.91-14.27-31.91-31.91,14.27-31.91,31.91-31.91,31.91,14.4,31.91,31.91Z"/>
      <path class="cls-2" d="M198.16,48.23c-74.45.26-135.4,60.7-136.44,135.15-.78,60.31,37.74,111.93,91.57,130.87,1.3.52,2.59-.65,2.46-1.95-.65-4.67-1.43-9.34-1.95-14.01-.26-1.69-1.3-2.98-2.72-3.76-42.54-18.55-72.24-61.22-71.72-110.63.65-64.85,53.57-117.64,118.28-118.16,66.28-.52,120.36,53.18,120.36,119.32,0,48.9-29.57,90.92-71.72,109.47-1.56.65-2.59,2.08-2.72,3.76-.65,4.67-1.3,9.34-1.95,14.01-.26,1.43,1.17,2.46,2.46,1.95,53.31-18.68,91.57-69.52,91.57-129.18-.26-75.48-61.87-136.96-137.48-136.83Z"/>
      <path class="cls-2" d="M195.05,93.62c-48.51,1.82-87.42,41.89-88.07,90.4-.39,31.91,15.56,60.18,40.08,76.91,1.17.78,2.85-.13,2.85-1.56-.39-5.58-.39-10.51-.13-15.69.13-1.69-.52-3.24-1.82-4.41-14.92-14.01-23.99-33.98-23.48-56.03,1.04-38.91,32.29-70.56,71.2-72.11,42.28-1.69,77.04,32.29,77.04,74.06,0,21.27-9.08,40.47-23.48,54.08-1.17,1.17-1.82,2.72-1.82,4.41.26,5.06.13,9.99-.13,15.56-.13,1.43,1.56,2.46,2.85,1.56,24.12-16.47,40.08-44.36,40.08-75.74.13-51.62-43.06-93.51-95.2-91.44Z"/>
    </g>
  </g>
</svg>