<?xml version="1.0" encoding="UTF-8"?>
<svg id="Layer_2" data-name="Layer 2" xmlns="http://www.w3.org/2000/svg" viewBox="0 0 397.35 397.35">
  <defs>
    <style>
      .cls-1 {
        fill: #111114;
      }

      .cls-1, .cls-2 {
        stroke-width: 0px;
      }

      .cls-2 {
        fill: #fff;
      }
    </style>
  </defs>
  <g id="Layer_1-2" data-name="Layer 1">
    <path class="cls-1" d="M397.35,198.68c0,109.73-88.95,198.68-198.68,198.68h0C88.95,397.35,0,308.4,0,198.68h0C0,88.95,88.95,0,198.68,0h0c109.73,0,198.68,88.95,198.68,198.68h0Z"/>
    <path class="cls-2" d="M116.54,96.36c33.25,24.96,69.01,75.57,82.14,102.73,13.13-27.16,48.89-77.77,82.14-102.73,23.99-18.01,62.86-31.95,62.86,12.4,0,8.86-5.08,74.39-8.06,85.04-10.35,36.99-48.07,46.43-81.62,40.72,58.65,9.98,73.57,43.05,41.35,76.11-61.19,62.79-87.96-15.76-94.82-35.88-1.26-3.69-1.85-5.42-1.85-3.95,0-1.47-.6.26-1.85,3.95-6.86,20.13-33.62,98.68-94.82,35.88-32.22-33.06-17.3-66.13,41.35-76.11-33.55,5.71-71.28-3.72-81.62-40.72-2.98-10.64-8.06-76.18-8.06-85.04,0-44.34,38.87-30.41,62.86-12.4h0Z"/>
  </g>
</svg>