<?xml version="1.0" encoding="UTF-8"?>
<svg id="Layer_2" data-name="Layer 2" xmlns="http://www.w3.org/2000/svg" viewBox="0 0 397.35 397.35">
  <defs>
    <style>
      .cls-1 {
        fill: #111114;
      }

      .cls-1, .cls-2 {
        stroke-width: 0px;
      }

      .cls-2 {
        fill: #fff;
      }
    </style>
  </defs>
  <g id="Layer_1-2" data-name="Layer 1">
    <path class="cls-1" d="M397.35,198.68c0,109.73-88.95,198.68-198.68,198.68h0C88.95,397.35,0,308.4,0,198.68h0C0,88.95,88.95,0,198.68,0h0c109.73,0,198.68,88.95,198.68,198.68h0Z"/>
    <g>
      <path class="cls-2" d="M99.98,240.8c6.14,7.64,7.32,12.5,1.01,19.51-9.09,10.09-16.38,21.8-24.45,32.82.81,1.07,1.63,2.15,2.44,3.22,5.11-1.05,10.77-1.04,15.24-3.34,22.66-11.68,45.85-22.63,67.28-36.31,44.27-28.24,85.29-60.86,121.81-98.76,10.84-11.25,20.6-23.55,30.48-35.68,2.56-3.14,3.7-7.44,6.82-13.98-7.47,1.75-12.52,2.36-17.12,4.14-9.46,3.65-19.23,7.01-27.83,12.21-8.12,4.91-13.48,3.46-19.46-4.37,18.62-10.89,37.23-21.44,58.95-23.92,13.11-1.5,21.16,9.02,15.38,20.85-5.87,12.01-13.38,23.57-21.96,33.83-34.46,41.19-75.89,74.78-120.27,104.42-26.26,17.53-54.5,32.16-82.32,47.24-7.06,3.83-15.78,5.53-23.91,6.24-13.57,1.18-20.28-7.84-15.73-20.66,2.23-6.28,5.73-12.34,9.7-17.72,7.29-9.88,15.37-19.18,23.93-29.73Z"/>
      <circle class="cls-2" cx="189.33" cy="191.54" r="103.19"/>
    </g>
  </g>
</svg>