<?xml version="1.0" encoding="UTF-8"?>
<svg id="Layer_1" data-name="Layer 1" xmlns="http://www.w3.org/2000/svg" version="1.1" viewBox="0 0 512 512">
  <defs>
    <style>
      .cls-1 {
        fill: #000;
      }

      .cls-1, .cls-2, .cls-3 {
        stroke-width: 0px;
      }

      .cls-2 {
        fill-rule: evenodd;
      }

      .cls-2, .cls-3 {
        fill: #fff;
      }
    </style>
  </defs>
  <circle class="cls-1" cx="256" cy="256" r="256"/>
  <path class="cls-3" d="M133.5,201c20-23,32-51,43-75,11-23,32-36,56-38-16,25-26,44-35,63h76c7,0,13,6,13,13v21c0,7-6,13-13,13h-61v33h76c7,0,13,6,13,13v22c0,7-6,13-13,13h-80c-5,38-24,72-59,97-19,14-39,22-66,21,39-20,65-48,80-81,6-12,10-23,12-37h-40c-8,0-14-6-14-14,0-19,12-34,31-34h23v-33h-28c-5,0-10,1-14,3Z"/>
  <path class="cls-3" d="M198.5,309c10-7,22-10,30-2,12,13,22,27,32,42,7,10,8,24,1,36-7,10-20,12-28,3-14-16-26-34-39-53-6-8-5-20,4-26Z"/>
  <path class="cls-2" d="M314.5,151h80c8,0,14,6,14,14v175c0,8-6,14-14,14h-38l-27,14c-5,3-12-1-13-7l-2-7h-12c-8,0-14-6-14-14v-175c0-8,6-14,14-14h12ZM330.5,193v113c0,4,3,7,7,7h24c4,0,7-3,7-7v-113c0-4-3-7-7-7h-24c-4,0-7,3-7,7Z"/>
</svg>